<svg id="workshops_logo" data-name="Workshops Logo" xmlns="http://www.w3.org/2000/svg" width="198" height="142" viewBox="0 0 198 142">
  <defs> <style> .w-cls-1 { fill: none; } .w-cls-2 { fill: #0b335c; } .w-cls-2, .w-cls-3, .w-cls-4, .w-cls-5 { fill-rule: evenodd; } .w-cls-3 { fill: #0b5a9d; } .w-cls-4 { fill: #3b7bb1; } .w-cls-5 { fill: #fff; } </style> </defs>
  <title>Workshops Logo</title>
  <path class="w-cls-1" d="M0,0H198V142H0Z"/>
  <g>
    <path class="w-cls-2" d="M76.11,5.18C71.33,2.36,65.7,4.81,63.82,9.82a16.62,16.62,0,0,0-.9,6c0,.83.06,1.66.14,2.49,0,.51.17.76-.17,1.16a9.68,9.68,0,0,0-1.38,2.2,10.72,10.72,0,0,0-.8,2.48c-7.18,0-12.14,0-13.77,0-9.06-.1-11.59-2.33-13.77-5-8.8-10.89-18.74-5.76-19.67-5.24l-.18.1C3.89,19.37,1.91,23.16,1.91,25.39a2.79,2.79,0,0,0,.47,1.66l.45.6.73-.17s9.06-2.08,12.1-2.8c2.13-.5,2.81.24,2.86.31C21,28,22.34,34.3,22.34,37.7a5.76,5.76,0,0,1-.09,1.17v0c-.1.15-.83,1.15-4.49,2-5.37,1.26-5.37,1.26-10.31,2.44l-.65.16-.18.64a1.79,1.79,0,0,0-.08.56c0,1.48,1.2,4.17,9.21,5.58,8.73,1.55,14.63,1.23,18.93-5,.32-.45,3.31-4.4,12.11-4.57H60a23.55,23.55,0,0,0,.07,3.94c.36,3,2.13,5.41,4.33,7.43,3.13,2.88,6.69,5.27,9.47,8.52l-.64-.75.64.75h0c1,1.15,1.94,2.33,3,3.45.67.73,1.74,1.43,2.11,2.35a10.33,10.33,0,0,1,.59,2.86,69.18,69.18,0,0,1,.06,9.87c-.39,8.56-1.29,17.09-2.27,25.6-.47,4.09-1,8.18-1.47,12.27l-3.4-.27c-.58-.05-.52,1.45-.61,1.91-.15.87-.31,1.74-.47,2.61a4.51,4.51,0,0,0-.21,1.19c.08.63,1.65,2.48,1.22,3l-1.58,1.71c-.29.32-.08.43.12.8l1.92,3.61c.13.25-2,1.49-2,2.07v4.57c0,.94-.11.88.77,1,5.13.59,10.25,1.17,15.37,1.78l11.69-.87c4.27-.31,8.59-.88,12.87-.88h15.85l-1.88-6.3c-.18-.59.56-1.84.75-2.4s1.07-2.13.8-2.59l-1-1.68c-.18-.29-.74-.91-.77-1.25s.58-1,.72-1.24c.31-.52.61-1,.91-1.57s.12-1.77.12-2.47v-3.11l-4.67.19c-1.17-10.75-2-21.54-3.13-32.29-.17-1.75-.39-3.49-.62-5.22a66.65,66.65,0,0,1-.24-7.61c-.06-2.84-.22-5.69-.13-8.53,0-.47-.07-.52.32-.83a10.24,10.24,0,0,0,.85-.76,9,9,0,0,0,1.34-1.62,11.2,11.2,0,0,0,1.52-3.68A27.78,27.78,0,0,0,121,40.64c16.08,0,21.62,0,24.24.22l.63,0a13.19,13.19,0,0,1,10,4.49c7.7,8.79,15.71,4.9,17.34,4l.17-.1c6.88-4,10.37-7.47,10.37-10.45a2.6,2.6,0,0,0-.45-1.57l-.45-.6-.73.17-11,2.53c-1.67.4-2.31-.07-2.44-.19a22.69,22.69,0,0,1-3.42-11.57c0-.47,0-.8,0-1s.91-1,4-1.73c4.87-1.14,4.87-1.14,9.34-2.21l.65-.16.19-.64a1.75,1.75,0,0,0,.07-.53h0c0-1.38-1.09-3.87-8.43-5.17-8.62-1.53-14.58,1.34-17,4.2-.29.29-.55.58-.8.87-1.33,1.52-2.48,2.84-10.27,2.84h-22.3a12.78,12.78,0,0,0-1.66-6.72,20.61,20.61,0,0,0-4.71-6.59c-2.24-1.88-5-1.35-7.29.11-.2-.82-.4-1.64-.62-2.45h0c-.7-2.34-1.8-4.51-4.16-5.61C98.71,1.13,94.72,2.9,92,5.48,91.49,4,90.88,2.3,89.51,1.33A7.73,7.73,0,0,0,84.77,0a10.28,10.28,0,0,0-8.66,5.18m48.76,114.14-11.08,6-24.67,3.16h24.67L119,127l-5.22,2.61a106.58,106.58,0,0,1-22.21,3.33l-15.15-.33,13.88,2.85a109.1,109.1,0,0,0,25.62-3.91l8.72-2.94a1.42,1.42,0,0,1,0,.2l-8.84,4.2c-6.83,2.05-17.63,3.64-29.26,5.14l24.51-2,8.78.94h-8.21c-3,0-5.9.35-8.84.57L87,138.77a12.16,12.16,0,0,1-2.08-.24L80.1,138,73,137.15c0-1-.39-2.48.39-3.19l1.86-1.68a.69.69,0,0,0,.21-.26H93.63c-7.5-1.11-16.17-2.78-19.15-5.72h0c.24-.27.4-.39.45-.53l14.19-4.47-9.72.6-6-.12c.09-.62.33-2.75.63-2.72l7.83.63,8.15.66a42.68,42.68,0,0,0,5.41-.25c9.79-.5,19.58-.89,29.37-1.27,0,.15,0,.32,0,.49M65.22,18.11a25.07,25.07,0,0,1-.08-4,9.32,9.32,0,0,1,2.48-6.33,5.9,5.9,0,0,1,5.77-1.46A7.87,7.87,0,0,1,76.16,7.9l.33.48a11.42,11.42,0,0,0-1.79-.61,22.4,22.4,0,0,0-3.92-.26,24.84,24.84,0,0,1,3.72.88A14.12,14.12,0,0,1,77.19,10a11.37,11.37,0,0,0-3.85-.3,17.17,17.17,0,0,1,2.45.6,5.63,5.63,0,0,1,1.07.6c-1.9,1.27-3.66,3.12-5.25,4.28a18.92,18.92,0,0,1-4.08,2.26A4.07,4.07,0,0,1,68,13.89a4.59,4.59,0,0,0-1.38,1.93,2.1,2.1,0,0,0-.06.24.93.93,0,0,1,0-.1,6.5,6.5,0,0,1,1.54-5.44A7,7,0,0,0,66,18c-.24.08-.48.17-.72.23l-.07,0a.68.68,0,0,1,0-.14M32.78,44c-3.64,5.25-8.46,5.47-16.64,4-4.56-.8-6.4-2-7-2.7,3.85-.92,4.25-1,9.17-2.16,5.15-1.21,6.08-2.95,6.22-3.76a7.58,7.58,0,0,0,.16-1.7c0-3.6-1.39-10.59-4.3-14.09-.14-.21-1.53-2-5.22-1.16L4.27,25c.28-1.25,1.9-4.24,10.22-9l.14-.08c1-.59,9.12-4.75,16.75,4.68,2.95,3.65,6.43,5.77,15.53,5.88,1.62,0,6.47,0,13.49,0l0,.59-1.87.5,1.83.5c0,.22,0,.44,0,.65-10.67.19-17.37.39-17.37.39s6.69.19,17.36.38v.33c-1.81.17-5.91.59-5.91.59l5.89.58c0,.26,0,.51,0,.76l-2.9.55,2.88.54c0,.21,0,.43,0,.64L56.68,34l3.53.57v0H42.31a3.67,3.67,0,0,1-3.65-3.7v-.07a4.48,4.48,0,0,1,.09-.82,3.7,3.7,0,0,0-1.53,3v.07a3.69,3.69,0,0,0,3.69,3.69H60.16v.46c0,.4,0,.79,0,1.19H46.76c-9.76.18-13.36,4.66-14,5.56m44.57-1.92a9.45,9.45,0,0,0-2.5,3.16,15.56,15.56,0,0,1,1.85-1.78,2.52,2.52,0,0,1,.4-.21c-.06.2-.13.41-.2.62,0,0-.06.09-.08.14a8.75,8.75,0,0,0-.88,3.27,8,8,0,0,1,1.42-2.8,21,21,0,0,1,4.39-1.77,15.55,15.55,0,0,1,11.76,1.43c4.07,2.41,7.91,7.16,7.95,12.08,0,1.74.11,2.71-1.56,6.44,2.2-2.45,3.32-4.07,3.56-6.77.22-3.14-1.07-5.74-2.91-8.11a47,47,0,0,1,5.21,6,7.26,7.26,0,0,0,.9,1.24c-.14-.43-.25-.83-.37-1.23a8.73,8.73,0,0,1,.86-7.05,7.18,7.18,0,0,1,8.78-2.16,8.7,8.7,0,0,1,4.68,6.94c0,.68,0,1.36-.13,2s-.16,1.26-.29,1.88A12,12,0,0,1,116.31,61a16.39,16.39,0,0,1-9.09,3.38,4.51,4.51,0,0,1,3.12,1.33,87.69,87.69,0,0,0-9.68.7A85.79,85.79,0,0,1,112,67.77c1.51,2.34,3.15,6.32,4.62,13.14,1.37,10.71,2.1,21.53,3.17,32.28.12,1.22.25,2.44.38,3.66l-1.24.05c-1.08-8.69-2.39-17.37-3.59-26,.34,8.71.57,17.43,1,26.14-4.29.17-8.59.31-12.88.53L93.6,118a32,32,0,0,1-4.27.08l-3.82-.3c-.22-4.14-.63-8.27-.94-12.4-.5,4.06-1.1,8.13-1.52,12.2l-.94-.08q.7-16,1.39-32.09c0-.75.07-1.49.1-2.23l-3.87,32.32-.22,1.79L78,117.21c0-.11,0-.24,0-.42.11-.92.23-1.84.34-2.77q.63-5.08,1.21-10.18c.3-2.71.6-5.42.87-8.14Q81.4,89.37,82.33,83A24.32,24.32,0,0,1,84.5,75a14.72,14.72,0,0,1,3.83-4.45c1.47-.31,2.93-.6,4.42-.82,1.29-.19,2.58-.36,3.88-.51C97.28,75.79,98.2,82.4,99,89c.11-6.68.35-13.36.31-20L97.81,69l1.69-.15c.42,3.6,1.08,7.19,1.62,10.77.34-3.64.79-7.29,1-10.94l.61,0c.42,7.55,1.12,15.1,1.68,22.65.33-7.56.79-15.13,1-22.7.79,0,1.58,0,2.38.07a71.07,71.07,0,0,0-14.94-1c2-.94,4-1.69,6.1-2.44A26.36,26.36,0,0,1,76.6,60.56a54.66,54.66,0,0,0-5.8-5.89c-1.89-1.59-3.91-3.07-5.66-4.82a9.79,9.79,0,0,1-2.68-4.48c1.44.19,2.88.34,4.32.51-1.52-.57-3-1.18-4.57-1.73,0-.09,0-.18,0-.27,1.79.25,3.6.44,5.4.67-1.83-.62-3.64-1.27-5.48-1.86,0-.24,0-.47,0-.71.06-2.11.19-4.22.23-6.33.06-2.78.08-5.57.2-8.36a16.18,16.18,0,0,1,.31-2.61A16.8,16.8,0,0,0,67,27.41a16,16,0,0,1-2.68-2.31,17.41,17.41,0,0,1-1.17-1.68c.06-.17.13-.34.2-.51A20.21,20.21,0,0,0,67.84,26,30.47,30.47,0,0,1,65.52,24c-.61-.67-1.06-1.46-1.6-2.18a6.48,6.48,0,0,1,.53-.76c1.3,1,2.67,1.94,4,2.91-1-1.18-1.92-2.38-2.92-3.53a21,21,0,0,0,6.31-2.82,3.38,3.38,0,0,0,1.54,2.26,4.57,4.57,0,0,0,4.93-.35c2.38-1.68,4-5.25,1.81-7.66,1.64,2.09.62,4.59-1.16,6.27a4.38,4.38,0,0,1-3.74,1.32c-1.51-.26-2-1.25-2.18-2.6H73c.37-.27.74-.56,1.11-.86a5.49,5.49,0,0,0,2.08,2.29,8.46,8.46,0,0,1-.91-1.53c-.17-.5,0-1.11-.17-1.6l.42-.36c1.51-1.34,3.48-3.38,5.71-3,1.93.36,2.73,2.25,2.86,4a11.86,11.86,0,0,1-1.53,6.5h0v0a15.84,15.84,0,0,1-2.91,3.82A20.69,20.69,0,0,1,73,30.32a18.43,18.43,0,0,1-4-.27,11.61,11.61,0,0,0,2.18,1l.24.26a8.22,8.22,0,0,1-.83.3,18.54,18.54,0,0,1-3,.53,19.81,19.81,0,0,0,4.68,0A5.62,5.62,0,0,1,74,36.42c-.13,1.31-1.79,2.51-2.63,3.42,1.44-.28,3.35-1.07,4.72-.29a2.33,2.33,0,0,1,1.23,2.52m4.57-12.75c0,.22.07.44.12.65-1,.21-1.93.5-2.89.74,1.06.17,2.14.39,3.22.5A9.43,9.43,0,0,0,83.8,34c-.07.18-.13.39-.19.6-1.55.8-6.07-1.22-4.91-4.94l.72-.52a5.57,5.57,0,0,1,2.5.16m15,7.85L84.74,37l.16-.18H96.41a6.12,6.12,0,0,0,.5.39m8.12-.39h.64a6.38,6.38,0,0,0,1.18.56l-2.58,0a5.67,5.67,0,0,0,.66-.42l.1-.1m50.09-14c.22-.25.44-.51.75-.83,2.26-2.64,7.74-4.75,14.91-3.48,3.79.67,5.49,1.62,6.16,2.28-3.29.79-3.74.9-8.1,1.92-5,1.16-5.66,2.9-5.73,3.57a13.17,13.17,0,0,0-.06,1.39,25.08,25.08,0,0,0,3.84,12.92c.14.19,1.43,1.89,4.85,1.09,2.07-.49,7.25-1.68,9.66-2.24-.34,1.18-2,3.8-9.1,7.9l-.16.1c-1.78,1-8.09,3.83-14.49-3.48A15.3,15.3,0,0,0,146,38.6l-.53,0c-3.19-.28-10.35-.26-34.09-.22L83,38.4l.35-.18L98.59,38a6.83,6.83,0,0,0,2,.28,7.72,7.72,0,0,0,2.38-.36l17-.3-9.39-.16a7.65,7.65,0,0,0,1.51-.63h37.22A3.69,3.69,0,0,0,153,33.09V33a4.07,4.07,0,0,0-.06-.61,3.66,3.66,0,0,1-3.34,2.21H114.82l.39-.4,10.39-.62L116.21,33c.11-.13.21-.26.31-.4l6.24-.59-5.43-.51h0c.09-.15.8-1.24,1-1.63l.14-.23c19.77-.2,33.69-.61,33.69-.61s-13.57-.4-32.95-.6c.06-.12.13-.23.2-.35l3-.59L120,27c.1-.21.18-.44.27-.66h22.84c8.22,0,10.1-1.44,12-3.64M113.24,12.58a9.31,9.31,0,0,0-3.68,1.06,14.77,14.77,0,0,1,2.8-.4,9.87,9.87,0,0,1,2.08.58A20.72,20.72,0,0,1,115.91,16,20.33,20.33,0,0,1,118.38,21c-1,.14-2,.31-3.06.45,1.1.2,2.2.43,3.3.61a5.93,5.93,0,0,1,.07.59,17.37,17.37,0,0,0-4.54.14,16.22,16.22,0,0,1,3.18.43,13.24,13.24,0,0,1,1.37.51,4.78,4.78,0,0,1-.06.53,10.28,10.28,0,0,0-2.78-.07,17.09,17.09,0,0,1,2,.55,5.54,5.54,0,0,1,.59.32,22.14,22.14,0,0,1-3,5.38,5.3,5.3,0,0,0-.38.48,4.05,4.05,0,0,0-.86-1.17,5.09,5.09,0,0,0-2.76-1.24,4.91,4.91,0,0,1,2,1.48,4.38,4.38,0,0,1,.68,1.21,5.68,5.68,0,0,1,.13.71l-.22.26a3.88,3.88,0,0,0-.6-1.37c-1.17-2-3.89-1.59-5.72-1,1.39-.25,3.2-.47,4.36.53a2.92,2.92,0,0,1,1,2.3c0,.11,0,.21-.06.32a12.1,12.1,0,0,1-1.21-.14,9.77,9.77,0,0,1-2.32-1,10.44,10.44,0,0,0,2.8,2,8.93,8.93,0,0,1-1.47,1,4.18,4.18,0,0,1-4.51-.24,10.51,10.51,0,0,0,.37-1.33c.41-2.08.77-4.18,1.14-6.28.7-2.16,1.36-3.39,1.62-4.72v0a6.53,6.53,0,0,1,1-.27,19.91,19.91,0,0,1,2.32-.11,12.28,12.28,0,0,0-3.17-.52c0-.14,0-.29,0-.42,1.14-.29,2.28-.61,3.42-.9L109.61,20a22.54,22.54,0,0,0-1.67-5.52c-.08-.42-.16-.84-.25-1.26a6.54,6.54,0,0,1,2.23-1.34,3.28,3.28,0,0,1,3.32.72M101.57,4.85a3,3,0,0,1,.3.19c-1.08.07-2.15.18-3.24.36a37.24,37.24,0,0,1,4.55.87h0a2,2,0,0,1,.17.23,9.82,9.82,0,0,0-2.42-.2A10.69,10.69,0,0,0,96.1,7.67,10.27,10.27,0,0,1,100.91,7a9.58,9.58,0,0,1,2.35.56,8.27,8.27,0,0,1,.85.47,19.47,19.47,0,0,1,.69,2.42c.36,1.56.7,3.12,1.06,4.68.1.53.21,1.07.3,1.61s.21,1.11.32,1.68a10.72,10.72,0,0,0-2.41-.37,12.4,12.4,0,0,0-3.52.67,17.59,17.59,0,0,1,3.08,0,14,14,0,0,1,3,1.07c0,.11,0,.21,0,.32a13.85,13.85,0,0,0-4.51-.17,25,25,0,0,1,2.56.47,15.6,15.6,0,0,1,1.89.9c0,.23,0,.47-.08.71a14.37,14.37,0,0,0-3.77-.08,21,21,0,0,1,2.22.51,14.17,14.17,0,0,1,1.42.67c-.1.62-.2,1.25-.32,1.87-.34,1.78-.69,3.55-1,5.34a5.07,5.07,0,0,0-3-2.77,3.77,3.77,0,0,0-4.31,1.65,4,4,0,0,0-.12,3.4c-.68-2.27.83-5.14,3.62-4.58a3.86,3.86,0,0,1,2.39,1.65,10,10,0,0,1-1.5.46,7.64,7.64,0,0,1-2.73-.24,8.6,8.6,0,0,0,4.8,1,7.06,7.06,0,0,1,.32,2.2c0,.26-.06.55-.09.83a4.08,4.08,0,0,1-.38.85,3.72,3.72,0,0,1-2.8,1.33,4.43,4.43,0,0,1-4.77-2.57c-.9-1.79-.8-3.92-.71-5.87v-.06c.21-2.06.39-4.14.49-6.2a19.58,19.58,0,0,0,0-2c.53-.26,1-.64,1.58-.87a11.06,11.06,0,0,1,2.73-.63,12.24,12.24,0,0,0-4.45.27,16.52,16.52,0,0,0-.42-1.91c-.46-1.63-1-3.23-1.63-4.83-.12-.31-.73-2.16-1.19-3.51,2.34-2.44,5.38-4.66,8.73-3M88,2.91s0,0,0,0a2.58,2.58,0,0,0-.4,0,8.67,8.67,0,0,0-3.1.6,8.41,8.41,0,0,1,3,.14,17.47,17.47,0,0,1,1.75.82c.13.26.25.53.36.8a10.48,10.48,0,0,0-5.11-.21c2,.06,4.25.41,5.71,1.9.31.91.61,1.83.9,2.75h0c.48,1.42,1,2.81,1.52,4.23.17.49.34,1,.5,1.49a11.73,11.73,0,0,0-1.2-.07,12.68,12.68,0,0,0-3.44.7,12,12,0,0,1,3.39,0,10.15,10.15,0,0,1,1.61.54c.07.23.14.45.2.68s.05.24.08.37a9.81,9.81,0,0,0-4-.12,9.62,9.62,0,0,1,3,.55,8.8,8.8,0,0,1,1.28.76,15.28,15.28,0,0,1,.06,2.36c-.06,1.24-.17,2.48-.29,3.72h0q-.06.61-.12,1.26-.12,1.08-.21,2.16a4,4,0,0,0-1.95-1.95c-3.35-1.53-6.23,1.5-6.15,4.73.14-2.61,2.16-5.18,5-4.39a3.19,3.19,0,0,1,1.48.87,17.41,17.41,0,0,1-3.84.95,17.81,17.81,0,0,0,4.55.14,3.75,3.75,0,0,1,.26,1c.15,1.28-.36,2.38-.49,3.6a5.25,5.25,0,0,1-5.31.79,5.71,5.71,0,0,1-2.74-4,14.09,14.09,0,0,1-.12-5.89c0-.1.25-.86.3-1.07s.31-.55.45-.83a14.86,14.86,0,0,0,.62-1.51c.93-.18,1.84-.52,2.78-.68a25.14,25.14,0,0,1,3.68-.3,28.34,28.34,0,0,0-6.09-.33c.76-3.23.49-7-2.24-9A4.93,4.93,0,0,0,80,9.58c-.11-.16-.29-.34-.38-.47l-.44-.63a.55.55,0,0,1,0-.17,4.73,4.73,0,0,1,.17-1.87A5.68,5.68,0,0,1,80.8,4.06a6.15,6.15,0,0,0-2.08,2.13,8.85,8.85,0,0,0-.43,1l-.4-.58a5.42,5.42,0,0,1,.84-1.52,8.48,8.48,0,0,1,6.1-2.93A5.65,5.65,0,0,1,88,2.91"/>
    <path class="w-cls-2" d="M175.32,20.78a16.84,16.84,0,0,0-4.88-1.46c-6.55-1.16-11.62.55-14,2.87,5.78-2.82,15.9-2.34,18.85-1.41"/>
    <path class="w-cls-2" d="M158.44,43.46c5.18,6.66,11.6,4.42,13.35,3.42l.31-.18c5.28-3.05,7.4-5.23,8.25-6.52-4,2.67-12.33,9.4-18.49,4.54-6.41-5.06-6.22-15.26-6.44-21.47-.69,2.35-1.29,14.68,3,20.21"/>
    <path class="w-cls-2" d="M31,21.21c5.69,14.71.42,24.14-5.49,25.18-7.69,1.35-11.81-.3-15.12-.79a22.89,22.89,0,0,0,5.84,1.85c8.05,1.63,13.61.56,17.08-5.57,3.09-5.48,1.44-16-2.31-20.67"/>
    <path class="w-cls-2" d="M16,19.58a61,61,0,0,0-10.8,4.23C8.12,23.14,12.94,22,15,21.54c3.67-.86,5.33.78,5.74,1.28h0a20.64,20.64,0,0,1,3.55,7.83,22.55,22.55,0,0,0-2.14-8.27A5.13,5.13,0,0,0,16,19.58"/>
    <path class="w-cls-2" d="M135.5,30.25c-9.23,0-16.7.72-16.7.72s7.47.72,16.7.72S152.21,31,152.21,31s-7.48-.72-16.71-.72"/>
    <path class="w-cls-2" d="M116.27,59.61a11.5,11.5,0,0,0,2.89-9.91,14.84,14.84,0,0,1-3.86,9,14.83,14.83,0,0,1-8.85,4.13,11.49,11.49,0,0,0,9.82-3.19"/>
    <path class="w-cls-2" d="M99.57,59.55A13.6,13.6,0,0,0,83.13,43.63a17,17,0,0,1,11.63,4.44,17,17,0,0,1,4.81,11.48"/>
  </g>
  <path class="w-cls-3" d="M179.7,117.2l12.66-15.93-23.16-2c0,.38-.07.77-.11,1.15l7.23,1.29-7.34-.1-.06.64,4.59.94-4.69.14q-.3,3.15-.6,6.33l5.94,1.33-6-.17c0,.46-.09.92-.13,1.38l3.87.78-4,.26c0,.47-.09.94-.13,1.41l7.14,1.2-7.24-.11-.15,1.51,3.16.66-3.23.09c-.11,1.26-.23,2.53-.35,3.79l8.27,1.29L167,122.9c-.08.76-.15,1.52-.22,2.29l7.76,1.2-8-.19-2,1,6.16.8-8.32.21-.68.32,13.69,1.42-15.72-.47L156,131.15,189.5,134Z"/>
  <path class="w-cls-3" d="M38.05,129.41l-16.16.49L36,128.44l-2.09-1-7.74-.19,5.73-.75-.83-.39-.3-3.24-8.84.22,8.73-1.36c-.05-.57-.1-1.14-.16-1.71l-3.88-.1,3.8-.8c-.11-1.12-.21-2.25-.32-3.38l-7.71.12L30,114.6l-.12-1.3L25.39,113l4.33-.87c0-.46-.09-.93-.13-1.39l-2.14-.31,2-.78c-.2-2.11-.39-4.2-.59-6.3l-3.5-.14,3.39-1-.06-.61-7.8.11,7.68-1.37c0-.35-.06-.71-.1-1.07l-23.16,2L18,117.2,8.2,134l33.56-2.85Z"/>
  <path class="w-cls-4" d="M197.71,99l-28.25-2.39q.4-4.21.8-8.4l-1.36-.34c-23-5.87-46.67-9.32-70.05-9.27s-47,3.4-70,9.27l-1.36.34q.4,4.18.8,8.4L0,99l14.69,18.48L3.16,137.19l43.59-3.7L46,124.77c17.57-1.47,35.28-2.41,52.84-2.39s35.28.92,52.85,2.39l-.74,8.72,43.58,3.7L183,117.44ZM18,117.2,5.34,101.27l23.16-2c0,.36.07.72.1,1.07l-7.68,1.37,7.8-.11.06.61-3.39,1,3.5.14c.2,2.1.39,4.19.59,6.3l-2,.78,2.15.31c0,.46.08.93.13,1.39l-4.33.87,4.44.29.12,1.3-7.6,1.28,7.71-.12c.11,1.13.21,2.26.32,3.38l-3.8.8,3.88.1c.06.57.11,1.14.16,1.71l-8.73,1.36,8.84-.22.3,3.24.83.39-5.73.75,7.74.19,2.09,1L21.89,129.9l16.16-.49,3.71,1.74L8.2,134Zm15.5,5.87Q32,106.45,30.42,90.22a293.14,293.14,0,0,1,68.43-8.5,293.23,293.23,0,0,1,68.44,8.5q-1.54,16.22-3.09,32.85a605.12,605.12,0,0,0-65.35-3.85A604.94,604.94,0,0,0,33.51,123.07Zm126.12,6.36,15.72.47-13.69-1.42.68-.32,8.32-.21-6.16-.8,2-1,8,.19-7.76-1.2c.07-.77.14-1.53.22-2.29l8.37.21-8.27-1.29c.12-1.26.24-2.53.35-3.79l3.23-.09-3.15-.66c0-.5.09-1,.14-1.51l7.24.11-7.14-1.2c0-.47.09-.94.13-1.41l4-.26-3.87-.78c0-.46.09-.92.13-1.38l6,.17-5.94-1.33q.3-3.18.6-6.33l4.69-.14-4.59-.94.06-.64,7.34.1-7.23-1.29c0-.38.08-.77.11-1.15l23.16,2L179.7,117.2l9.8,16.8-33.56-2.85Z"/>
  <path class="w-cls-3" d="M98.85,119.22a605.12,605.12,0,0,1,65.35,3.85q1.55-16.62,3.08-32.85a293.08,293.08,0,0,0-68.43-8.5,293.14,293.14,0,0,0-68.43,8.5q1.53,16.22,3.09,32.85a604.94,604.94,0,0,1,65.34-3.85"/>
  <path class="w-cls-5" d="M161.23,99.2l-.27,3.54c-.34,4.36-2.5,6.37-6.54,5.72l-1.91-.31-.69,10.43c-1.33-.18-2.66-.37-4-.54q.85-14,1.69-27.94,3,.54,6.08,1.13c4.13.81,6,3.63,5.63,8m-7.84-4.39c-.21,3.12-.41,6.25-.62,9.37l1.92.33c1.29.22,2-.29,2.18-2.25.1-1.37.19-2.75.29-4.12.14-2-.52-2.73-1.83-3l-1.94-.36"/>
  <path class="w-cls-5" d="M134,94.65c.19-4.57,2.52-6.91,6.58-6.31s6.14,3.56,5.88,8L145.64,111c-.26,4.49-2.54,6.78-6.46,6.35s-6-3.23-5.77-7.81c.2-5,.41-9.9.61-14.85m3.41,15.57c-.1,2,.67,2.89,1.95,3s2.12-.53,2.22-2.55c.27-5.08.53-10.17.79-15.24.11-2-.68-2.91-2-3.09s-2.16.47-2.26,2.5q-.36,7.66-.71,15.34"/>
  <path class="w-cls-5" d="M121.93,115.46c-1.33-.09-2.67-.17-4-.24q.33-14.49.65-29,2.07.15,4.14.33-.16,6.18-.34,12.37c1.55.12,3.09.25,4.64.39q.21-6.16.41-12.32c1.4.14,2.81.3,4.21.46q-.54,14.31-1.09,28.64c-1.36-.12-2.72-.24-4.07-.34q.19-6.16.4-12.33c-1.53-.14-3.07-.26-4.61-.38q-.17,6.2-.34,12.39"/>
  <path class="w-cls-5" d="M110.08,85.45c4,.17,6,3,6,7.6l0,.92c-1.29-.08-2.59-.15-3.88-.2l0-1.21c0-2.07-.71-2.9-2-3s-2.07.72-2.1,2.8c0,6,7.92,7.42,7.74,15.73-.1,4.64-2.19,7.18-6.11,7.07s-6-2.79-5.93-7.46c0-.59,0-1.19,0-1.79l3.82.08c0,.69,0,1.38,0,2.08,0,2.08.78,2.85,2.06,2.88s2.09-.67,2.13-2.75c.1-6-7.84-7.35-7.81-15.65,0-4.65,2.11-7.3,6.15-7.15"/>
  <path class="w-cls-5" d="M94.61,103.14l-1.23,2.68.06,9c-1.33,0-2.67,0-4,.09q-.18-14.55-.35-29.1,2.07-.08,4.14-.12l.09,12.69q2.63-6.4,5.34-12.76l4.14,0q-2.91,6.47-5.73,13,2.87,8.06,5.62,16.16H98.57q-1.95-5.81-4-11.58"/>
  <path class="w-cls-5" d="M83.18,115.1a10,10,0,0,1-.43-3.55c0-1.52-.06-3-.1-4.56-.05-2.69-.88-3.65-2.73-3.53l-1.4.09.3,11.78-4,.26q-.42-14.43-.86-28.84c2.08-.19,4.17-.36,6.25-.51,4.3-.29,6.18,1.85,6.24,6.33,0,.76,0,1.52,0,2.28,0,3-.78,5-2.58,6,2.06.85,2.75,3,2.8,6.06,0,1.5,0,3,.07,4.49a9.47,9.47,0,0,0,.49,3.51c-1.36,0-2.72.1-4.08.17m-5-24.57q.1,4.44.22,8.88l1.59-.1c1.52-.1,2.43-.89,2.39-3.22l-.06-2.85c0-2.08-.69-2.95-2.16-2.85l-2,.14"/>
  <path class="w-cls-5" d="M59.05,95.36c-.22-4.53,1.87-7.45,5.94-8s6.37,1.92,6.52,6.52q.26,7.47.5,15c.15,4.61-1.91,7.4-5.83,7.76s-6.19-2-6.42-6.52q-.34-7.38-.71-14.75m4.76,14.58c.09,2,.92,2.73,2.2,2.6s2-1,2-3q-.3-7.74-.59-15.47c-.08-2-.94-2.74-2.25-2.58s-2.1,1-2,3.07q.33,7.69.67,15.4"/>
  <path class="w-cls-5" d="M47.91,103.46q-.27,7.53-.52,15.06c-1.82.25-3.65.52-5.47.8Q39.51,105.75,37,92.46c1.33-.29,2.67-.56,4-.83q1.88,10.59,3.7,21.35.23-11.07.5-22.17c1.32-.25,2.65-.49,4-.72Q50.89,101,52.54,112q.39-11.3.85-22.62c1.2-.2,2.41-.38,3.61-.56q-.75,14.34-1.4,28.62c-1.77.22-3.54.44-5.3.68q-1.19-7.37-2.39-14.66"/>
</svg>
