<svg id="msts-technology-logo" data-name="MSTS Technology Logo" xmlns="http://www.w3.org/2000/svg" width="100" height="30.79" viewBox="0 0 100 30.79">
  <defs> <style> .cls-1 { fill: #fff; } </style> </defs>
  <title>MSTS Technology Logo</title>
  <g>
    <g>
      <path class="cls-1" d="M35.17,30.2H30.84V14.71c0-4-1.92-6.05-5.46-6.05-3.29,0-5.66,2.65-5.66,6.34V30.2H15.45V14.71c0-3.84-2-6.05-5.42-6.05-3.24,0-5.7,2.7-5.7,6.34V30.2H0V5.31H4.18V7.77a8.18,8.18,0,0,1,6.44-3A8.5,8.5,0,0,1,18.25,8.8,8.78,8.78,0,0,1,26,4.72c5.71,0,9.25,3.89,9.25,10.13V30.2Z"/>
      <path class="cls-1" d="M48.75,30.79c-6.1,0-10.48-3.34-11.12-8.56v-.14H42v.09c.49,2.71,3.19,4.53,6.78,4.53,4,0,6.06-2,6.06-3.89,0-1.57-.5-2.9-6.6-3.69s-9.74-2.36-9.74-7.08c0-3.59,3.05-7.43,9.79-7.43,5.86,0,9.64,2.91,10.18,7.82v.15H54.11v-.1c-.54-2.41-2.71-3.88-5.81-3.88S42.84,10,42.84,12c0,1.63,1.28,2.27,6.1,3.05C54.65,15.89,59,17,59,22.63,59,27.5,54.85,30.79,48.75,30.79Z"/>
      <path class="cls-1" d="M71.62,30.25a8.43,8.43,0,0,1-5.66-2,9.36,9.36,0,0,1-2.8-7.23V9.39H59.81V5.26h3.35V0h4.28V5.26H73V9.39h-5.6V21.05a5.19,5.19,0,0,0,1.37,4A5.31,5.31,0,0,0,73,26.17h.14v4H73A7,7,0,0,1,71.62,30.25Z"/>
      <path class="cls-1" d="M85.44,30.79c-6.1,0-10.48-3.34-11.12-8.56v-.14H78.7v.09c.49,2.71,3.2,4.53,6.79,4.53,4,0,6.05-2,6.05-3.89,0-1.57-.49-2.9-6.59-3.69s-9.74-2.36-9.74-7.08c0-3.59,3.05-7.43,9.79-7.43,5.85,0,9.64,2.91,10.18,7.82v.15H90.8v-.1c-.54-2.41-2.7-3.88-5.8-3.88S79.54,10,79.54,12c0,1.63,1.28,2.27,6.1,3.05,5.7.89,10.08,2,10.08,7.63C95.67,27.5,91.54,30.79,85.44,30.79Z"/>
    </g>
    <path class="cls-1" d="M97.69,28.14v.29H97.1V30.2h-.35V28.43h-.59v-.29ZM100,30.2h-.34V28.68l-.55,1.52h-.34l-.54-1.52V30.2h-.35V28.09h.45l.59,1.67.59-1.67H100V30.2Z"/>
  </g>
</svg>
