<svg id="msts-technology-logo" data-name="MSTS Technology Logo" xmlns="http://www.w3.org/2000/svg" width="100" height="32" viewBox="0 0 100 32">
  <defs> <style> .cls-1 { fill: #fff; } </style> </defs>
  <title>MSTS Technology Logo</title>
  <g>
    <path class="cls-1" d="M36.73,31.39H32.22V15.28c0-4.14-2-6.28-5.7-6.28-3.45,0-5.91,2.76-5.91,6.6V31.4H16.14V15.28c0-4-2-6.28-5.66-6.28-3.39,0-6,2.81-6,6.6V31.4H0V5.52H4.37V8.06A8.59,8.59,0,0,1,11.1,4.89a9,9,0,0,1,8,4.25A9.15,9.15,0,0,1,27.13,4.9c6,0,9.67,4.07,9.67,10.53v16Z"/>
    <path class="cls-1" d="M50.92,32C44.55,32,40,28.53,39.31,23.11V23H43.9v.11c.51,2.8,3.34,4.7,7.09,4.7,4.17,0,6.33-2,6.33-4,0-1.63-.51-3-6.89-3.83s-10.2-2.46-10.2-7.36c0-3.74,3.19-7.72,10.2-7.72,6.13,0,10.08,3,10.64,8.12v.15H56.48V13c-.57-2.5-2.83-4-6.06-4s-5.71,1.49-5.71,3.48c0,1.69,1.34,2.35,6.38,3.17,6,.92,10.53,2.1,10.53,7.92C61.61,28.58,57.3,32,50.92,32Z"/>
    <path class="cls-1" d="M74.82,31.44a8.83,8.83,0,0,1-5.91-2A9.69,9.69,0,0,1,66,21.89V9.76h-3.5V5.47H66V0h4.47V5.47h5.86V9.76H70.45V21.88A5.33,5.33,0,0,0,71.89,26a5.67,5.67,0,0,0,4.37,1.17h.15v4.14h-.1A7.43,7.43,0,0,1,74.82,31.44Z"/>
    <path class="cls-1" d="M89.29,32c-6.38,0-11-3.47-11.62-8.89V23h4.6v.11c.51,2.8,3.34,4.7,7.09,4.7,4.16,0,6.32-2,6.32-4,0-1.63-.51-3-6.89-3.83s-10.22-2.46-10.22-7.36c0-3.74,3.19-7.72,10.21-7.72,6.12,0,10.07,3,10.63,8.12v.15H94.82V13c-.56-2.5-2.83-4-6.06-4s-5.71,1.49-5.71,3.48c0,1.69,1.34,2.35,6.37,3.17,6,.92,10.58,2.1,10.58,7.92C100,28.58,95.63,32,89.29,32Z"/>
  </g>
</svg>
