<svg id="msts-technology-logo" data-name="MSTS Technology Logo" xmlns="http://www.w3.org/2000/svg" width="294" height="36" viewBox="0 0 294 36">
  <defs> <style> .cls-1 { fill: none; } .cls-2 { fill: #f5f5f5; } .cls-2, .cls-4, .cls-5 { fill-rule: evenodd; } .cls-3, .cls-5 { fill: #8e9091; } .cls-4 { fill: #fff; } </style> </defs>
  <title>MSTS Technology Logo</title>
  <path class="cls-1" d="M0,0H294V36H0Z"/>
  <path class="cls-2" d="M286.3,24.7V19.14l-5.05-7.55h2.11L286,15.54c.47.74.92,1.48,1.33,2.22.39-.69.87-1.46,1.43-2.32l2.54-3.85h2L288,19.14V24.7Z"/>
  <path class="cls-2" d="M273.63,19.56V18h5.55v4.86a9.93,9.93,0,0,1-2.64,1.54,7.91,7.91,0,0,1-2.79.51,7.45,7.45,0,0,1-3.51-.83,5.5,5.5,0,0,1-2.38-2.39,7.47,7.47,0,0,1-.8-3.49,8,8,0,0,1,.8-3.57,5.32,5.32,0,0,1,2.3-2.47,7.27,7.27,0,0,1,3.46-.8,6.8,6.8,0,0,1,2.57.46,4.33,4.33,0,0,1,1.8,1.28,5.8,5.8,0,0,1,1,2.15l-1.56.43a4.75,4.75,0,0,0-.74-1.58,3,3,0,0,0-1.25-.91,4.55,4.55,0,0,0-1.8-.35,5.35,5.35,0,0,0-2.06.36,3.91,3.91,0,0,0-1.4,1,4.66,4.66,0,0,0-.83,1.29,6.93,6.93,0,0,0-.5,2.64,6.29,6.29,0,0,0,.61,2.93,3.8,3.8,0,0,0,1.75,1.75,5.48,5.48,0,0,0,2.45.58A6.53,6.53,0,0,0,277.48,22V19.56Z"/>
  <path class="cls-2" d="M251.12,18.31a7.14,7.14,0,0,1,1.75-5.11,5.93,5.93,0,0,1,4.52-1.84,6.25,6.25,0,0,1,3.27.87,5.63,5.63,0,0,1,2.22,2.41,7.88,7.88,0,0,1,.77,3.52,7.69,7.69,0,0,1-.81,3.57,5.41,5.41,0,0,1-2.28,2.38,6.48,6.48,0,0,1-3.18.81,6.29,6.29,0,0,1-3.31-.89,5.77,5.77,0,0,1-2.2-2.44,7.47,7.47,0,0,1-.75-3.28m1.78,0a5.24,5.24,0,0,0,1.28,3.73,4.43,4.43,0,0,0,6.42,0,5.59,5.59,0,0,0,1.26-3.91,6.71,6.71,0,0,0-.54-2.79,4.16,4.16,0,0,0-1.58-1.85,4.31,4.31,0,0,0-2.34-.66,4.42,4.42,0,0,0-3.17,1.27c-.88.84-1.33,2.25-1.33,4.22"/>
  <polygon class="cls-2" points="240.88 24.7 240.88 11.59 242.61 11.59 242.61 23.15 249.06 23.15 249.06 24.7 240.88 24.7"/>
  <path class="cls-2" d="M224.57,18.31a7.14,7.14,0,0,1,1.75-5.11,6,6,0,0,1,4.52-1.84,6.31,6.31,0,0,1,3.28.87,5.63,5.63,0,0,1,2.22,2.41,7.88,7.88,0,0,1,.76,3.52,7.81,7.81,0,0,1-.8,3.57A5.52,5.52,0,0,1,234,24.11a6.51,6.51,0,0,1-3.18.81,6.24,6.24,0,0,1-3.31-.89,5.79,5.79,0,0,1-2.21-2.44,7.47,7.47,0,0,1-.75-3.28m1.79,0a5.24,5.24,0,0,0,1.27,3.73,4.43,4.43,0,0,0,6.42,0,5.59,5.59,0,0,0,1.26-3.91,6.71,6.71,0,0,0-.54-2.79,4.1,4.1,0,0,0-1.58-1.85,4.26,4.26,0,0,0-2.34-.66,4.43,4.43,0,0,0-3.17,1.27c-.88.84-1.32,2.25-1.32,4.22"/>
  <polygon class="cls-2" points="210.25 24.7 210.25 11.59 212.03 11.59 218.91 21.88 218.91 11.59 220.57 11.59 220.57 24.7 218.79 24.7 211.91 14.4 211.91 24.7 210.25 24.7"/>
  <polygon class="cls-2" points="195.49 24.7 195.49 11.59 197.22 11.59 197.22 16.97 204.03 16.97 204.03 11.59 205.77 11.59 205.77 24.7 204.03 24.7 204.03 18.52 197.22 18.52 197.22 24.7 195.49 24.7"/>
  <path class="cls-2" d="M190,20.1l1.73.44a5.81,5.81,0,0,1-2,3.26,5.38,5.38,0,0,1-3.46,1.12,6.3,6.3,0,0,1-3.45-.86,5.44,5.44,0,0,1-2-2.5,8.93,8.93,0,0,1-.69-3.51,7.77,7.77,0,0,1,.78-3.58,5.35,5.35,0,0,1,2.23-2.31,6.47,6.47,0,0,1,3.18-.79,5.33,5.33,0,0,1,3.3,1,5.18,5.18,0,0,1,1.87,2.82l-1.71.4a4,4,0,0,0-1.32-2.09,3.55,3.55,0,0,0-2.18-.65,4.21,4.21,0,0,0-2.53.73,3.82,3.82,0,0,0-1.42,1.94,7.65,7.65,0,0,0-.41,2.52,8.16,8.16,0,0,0,.48,2.92,3.63,3.63,0,0,0,1.52,1.86,4.25,4.25,0,0,0,2.22.62,3.72,3.72,0,0,0,2.47-.84A4.3,4.3,0,0,0,190,20.1"/>
  <polygon class="cls-2" points="166.81 11.59 166.81 24.7 176.59 24.7 176.59 23.15 168.55 23.15 168.55 18.69 175.8 18.69 175.8 17.15 168.55 17.15 168.55 13.14 176.29 13.14 176.29 11.59 166.81 11.59"/>
  <polygon class="cls-2" points="153 11.59 153 13.14 157.32 13.14 157.32 24.7 159.05 24.7 159.05 13.14 163.39 13.14 163.39 11.59 153 11.59"/>
  <rect class="cls-3" x="133" y="10" width="2" height="16"/>
  <path class="cls-4" d="M111.38,35.59a2.13,2.13,0,1,1,2.13-2.13,2.13,2.13,0,0,1-2.13,2.13m0-3.78A1.65,1.65,0,1,0,113,33.46a1.65,1.65,0,0,0-1.65-1.65"/>
  <path class="cls-4" d="M110.6,32.36h.84c.55,0,.87.17.87.65a.55.55,0,0,1-.59.59l.6,1h-.46l-.54-1H111v1h-.44Zm.44.92h.39c.25,0,.44,0,.44-.31s-.26-.27-.46-.27H111Z"/>
  <path class="cls-4" d="M108.63,26a9.56,9.56,0,0,1-1.25,5,8.42,8.42,0,0,1-4.83,3.88,19,19,0,0,1-5.58.64H87v-7h9.48a10.45,10.45,0,0,0,3-.3,2.14,2.14,0,0,0,1.65-2.19,3,3,0,0,0-.85-2,29.74,29.74,0,0,0-3.82-2.73c-2.33-1.53-4-2.7-5.08-3.53a12.94,12.94,0,0,1-3.13-3.33A9,9,0,0,1,87,9.67,9,9,0,0,1,88.39,4.6a7.62,7.62,0,0,1,4.37-3.33A20.08,20.08,0,0,1,98.19.72h9v7H97.64a6.19,6.19,0,0,0-2.09.25,1.66,1.66,0,0,0-1,1.69,2.78,2.78,0,0,0,.69,1.79,8.48,8.48,0,0,0,1.34,1.34c.4.3,1.36.93,2.89,1.89a59.06,59.06,0,0,1,5.4,3.61A11,11,0,0,1,107.39,21a7,7,0,0,1,.94,2.34,12.23,12.23,0,0,1,.3,2.68"/>
  <polygon class="cls-4" points="85.59 7.68 78.03 7.68 78.03 35.53 70.67 35.53 70.67 7.68 63.11 7.68 63.11 0.72 85.59 0.72 85.59 7.68"/>
  <path class="cls-4" d="M62.79,26a9.56,9.56,0,0,1-1.25,5,8.42,8.42,0,0,1-4.83,3.88,19,19,0,0,1-5.58.64h-10v-7h9.48a10.45,10.45,0,0,0,3-.3,2.14,2.14,0,0,0,1.65-2.19,3,3,0,0,0-.85-2,29.74,29.74,0,0,0-3.82-2.73c-2.33-1.53-4-2.7-5.08-3.53a12.94,12.94,0,0,1-3.13-3.33,9,9,0,0,1-1.24-4.78A9,9,0,0,1,42.55,4.6a7.62,7.62,0,0,1,4.37-3.33A20.08,20.08,0,0,1,52.35.72h9v7H51.8a6.19,6.19,0,0,0-2.09.25,1.66,1.66,0,0,0-1,1.69,2.78,2.78,0,0,0,.69,1.79,8.48,8.48,0,0,0,1.34,1.34c.4.3,1.36.93,2.89,1.89A59.06,59.06,0,0,1,59,18.25,11,11,0,0,1,61.55,21a7,7,0,0,1,.94,2.34,12.23,12.23,0,0,1,.3,2.68"/>
  <path class="cls-5" d="M48.54,12.67a11.9,11.9,0,0,0-2.6,2.89c-.11.19-.22.38-.32.57H56l1.21-.76c1.71-1,3.09-1.94,4.17-2.7Z"/>
  <path class="cls-4" d="M39.39,35.53H31.68L29,8.58,23,33.34a4.24,4.24,0,0,1-.8,1.89,3.31,3.31,0,0,1-2.49.75,3.61,3.61,0,0,1-2-.4,3.86,3.86,0,0,1-1.25-2.34l-6-24.66-2.68,27H0l3.43-28A12.35,12.35,0,0,1,4.82,2.61,5.27,5.27,0,0,1,9.65.12a5.93,5.93,0,0,1,4.77,2A7.49,7.49,0,0,1,16,5.49l3.68,16.27,3.63-16a8.58,8.58,0,0,1,1.6-3.58,5.83,5.83,0,0,1,4.77-2,5.27,5.27,0,0,1,4.68,2.19A12.27,12.27,0,0,1,36,7.48Z"/>
</svg>
